{
  "accessors": [
    {
      "bufferView": 2,
      "componentType": 5126,
      "count": 15,
      "max": [
        -132.95915222167969,
        -52.677978515625,
        873.81024169921875
      ],
      "min": [
        -145.88114929199219,
        -60.999755859375,
        862.572265625
      ],
      "type": "VEC3"
    },
    {
      "bufferView": 2,
      "byteOffset": 180,
      "componentType": 5126,
      "count": 15,
      "max": [
        0.99502426385879517,
        0.26362901926040649,
        0.99110138416290283
      ],
      "min": [
        -0.82201939821243286,
        -0.98777514696121216,
        -0.83555489778518677
      ],
      "type": "VEC3"
    },
    {
      "bufferView": 3,
      "componentType": 5126,
      "count": 15,
      "max": [
        0.17254902422428131,
        0.11372549086809158,
        0.094117648899555206,
        1
      ],
      "min": [
        0.17254902422428131,
        0.11372549086809158,
        0.094117648899555206,
        1
      ],
      "type": "VEC4"
    },
    {
      "bufferView": 1,
      "componentType": 5126,
      "count": 15,
      "max": [
        0.38534799218177795,
        0.089051999151706696
      ],
      "min": [
        0.38534799218177795,
        0.089051999151706696
      ],
      "type": "VEC2"
    },
    {
      "bufferView": 0,
      "componentType": 5125,
      "count": 15,
      "max": [
        14
      ],
      "min": [
        0
      ],
      "type": "SCALAR"
    },
    {
      "bufferView": 2,
      "byteOffset": 360,
      "componentType": 5126,
      "count": 4259,
      "max": [
        20.182861328125,
        -43.5418701171875,
        1039.498291015625
      ],
      "min": [
        -205.95915222167969,
        -209.8480224609375,
        857.896240234375
      ],
      "type": "VEC3"
    },
    {
      "bufferView": 2,
      "byteOffset": 51468,
      "componentType": 5126,
      "count": 4259,
      "max": [
        0.99870109558105469,
        0.99971914291381836,
        0.99889898300170898
      ],
      "min": [
        -0.99972838163375854,
        -0.99920302629470825,
        -0.99967664480209351
      ],
      "type": "VEC3"
    },
    {
      "bufferView": 3,
      "byteOffset": 240,
      "componentType": 5126,
      "count": 4259,
      "max": [
        1,
        1,
        1,
        1
      ],
      "min": [
        0.12941177189350128,
        0.11372549086809158,
        0.094117648899555206,
        1
      ],
      "type": "VEC4"
    },
    {
      "bufferView": 1,
      "byteOffset": 120,
      "componentType": 5126,
      "count": 4259,
      "max": [
        1.0000009536743164,
        1.0000070333480835
      ],
      "min": [
        -9.9999999747524271e-07,
        -6.0000002122251317e-06
      ],
      "type": "VEC2"
    },
    {
      "bufferView": 0,
      "byteOffset": 60,
      "componentType": 5125,
      "count": 23895,
      "max": [
        4258
      ],
      "min": [
        0
      ],
      "type": "SCALAR"
    },
    {
      "bufferView": 2,
      "byteOffset": 102576,
      "componentType": 5126,
      "count": 53,
      "max": [
        458.50494384765625,
        -0,
        891.8592529296875
      ],
      "min": [
        25.321678161621094,
        -211.00112915039062,
        872.11859130859375
      ],
      "type": "VEC3"
    },
    {
      "bufferView": 2,
      "byteOffset": 103212,
      "componentType": 5126,
      "count": 53,
      "max": [
        0.95254909992218018,
        0.92921173572540283,
        0.96232450008392334
      ],
      "min": [
        -0.98072034120559692,
        -0.93348485231399536,
        -0.95320099592208862
      ],
      "type": "VEC3"
    },
    {
      "bufferView": 3,
      "byteOffset": 68384,
      "componentType": 5126,
      "count": 53,
      "max": [
        1,
        1,
        1,
        1
      ],
      "min": [
        1,
        1,
        1,
        1
      ],
      "type": "VEC4"
    },
    {
      "bufferView": 1,
      "byteOffset": 34192,
      "componentType": 5126,
      "count": 53,
      "max": [
        1,
        1
      ],
      "min": [
        0,
        -0
      ],
      "type": "VEC2"
    },
    {
      "bufferView": 0,
      "byteOffset": 95640,
      "componentType": 5125,
      "count": 216,
      "max": [
        52
      ],
      "min": [
        0
      ],
      "type": "SCALAR"
    },
    {
      "bufferView": 2,
      "byteOffset": 103848,
      "componentType": 5126,
      "count": 756,
      "max": [
        14.071685791015625,
        -12.31201171875,
        1046.357177734375
      ],
      "min": [
        -214.70429992675781,
        -248.258056640625,
        853.14324951171875
      ],
      "type": "VEC3"
    },
    {
      "bufferView": 2,
      "byteOffset": 112920,
      "componentType": 5126,
      "count": 756,
      "max": [
        0.99937444925308228,
        0.9995381236076355,
        0.99861037731170654
      ],
      "min": [
        -0.99862009286880493,
        -0.99880862236022949,
        -0.99814289808273315
      ],
      "type": "VEC3"
    },
    {
      "bufferView": 3,
      "byteOffset": 69232,
      "componentType": 5126,
      "count": 756,
      "max": [
        1,
        1,
        1,
        1
      ],
      "min": [
        0,
        0.62745100259780884,
        0.73725491762161255,
        1
      ],
      "type": "VEC4"
    },
    {
      "bufferView": 1,
      "byteOffset": 34616,
      "componentType": 5126,
      "count": 756,
      "max": [
        0.38534799218177795,
        0.089051999151706696
      ],
      "min": [
        0.38534799218177795,
        0.089051999151706696
      ],
      "type": "VEC2"
    },
    {
      "bufferView": 0,
      "byteOffset": 96504,
      "componentType": 5125,
      "count": 1422,
      "max": [
        755
      ],
      "min": [
        0
      ],
      "type": "SCALAR"
    },
    {
      "bufferView": 2,
      "byteOffset": 121992,
      "componentType": 5126,
      "count": 22722,
      "max": [
        55.661689758300781,
        -5.7919921875,
        1047.4451904296875
      ],
      "min": [
        -227.7523193359375,
        -253.3897705078125,
        849.94921875
      ],
      "type": "VEC3"
    },
    {
      "bufferView": 2,
      "byteOffset": 394656,
      "componentType": 5126,
      "count": 22722,
      "max": [
        0.99993789196014404,
        0.99999523162841797,
        0.99999499320983887
      ],
      "min": [
        -0.99999386072158813,
        -0.9999963641166687,
        -0.99978351593017578
      ],
      "type": "VEC3"
    },
    {
      "bufferView": 3,
      "byteOffset": 81328,
      "componentType": 5126,
      "count": 22722,
      "max": [
        1,
        1,
        1,
        1
      ],
      "min": [
        0,
        0.62745100259780884,
        0.90980392694473267,
        1
      ],
      "type": "VEC4"
    },
    {
      "bufferView": 1,
      "byteOffset": 40664,
      "componentType": 5126,
      "count": 22722,
      "max": [
        7.1474862098693848,
        7.1474881172180176
      ],
      "min": [
        0,
        0
      ],
      "type": "VEC2"
    },
    {
      "bufferView": 0,
      "byteOffset": 102192,
      "componentType": 5125,
      "count": 141480,
      "max": [
        22721
      ],
      "min": [
        0
      ],
      "type": "SCALAR"
    }
  ],
  "asset": {
    "extras": {
      "author": "tl0615 (https://sketchfab.com/tl0615)",
      "license": "CC-BY-4.0 (http://creativecommons.org/licenses/by/4.0/)",
      "source": "https://sketchfab.com/3d-models/coronavirus-covid-19-pneumonia-ct-b5b9d0447cf44223b1d927adb3a628b5",
      "title": "Coronavirus COVID 19 Pneumonia CT"
    },
    "generator": "Sketchfab-8.32.0",
    "version": "2.0"
  },
  "bufferViews": [
    {
      "buffer": 0,
      "byteLength": 668112,
      "byteOffset": 0,
      "name": "floatBufferViews",
      "target": 34963
    },
    {
      "buffer": 0,
      "byteLength": 222440,
      "byteOffset": 668112,
      "byteStride": 8,
      "name": "floatBufferViews",
      "target": 34962
    },
    {
      "buffer": 0,
      "byteLength": 667320,
      "byteOffset": 890552,
      "byteStride": 12,
      "name": "floatBufferViews",
      "target": 34962
    },
    {
      "buffer": 0,
      "byteLength": 444880,
      "byteOffset": 1557872,
      "byteStride": 16,
      "name": "floatBufferViews",
      "target": 34962
    }
  ],
  "buffers": [
    {
      "byteLength": 2002752,
      "uri": "scene.bin"
    }
  ],
  "extensionsRequired": [
    "KHR_materials_pbrSpecularGlossiness"
  ],
  "extensionsUsed": [
    "KHR_materials_pbrSpecularGlossiness"
  ],
  "images": [
    {
      "uri": "textures/material_0_diffuse.jpeg"
    },
    {
      "uri": "textures/material_2_diffuse.jpeg"
    },
    {
      "uri": "textures/material_4_diffuse.png"
    },
    {
      "uri": "textures/material_4_emissive.png"
    }
  ],
  "materials": [
    {
      "alphaMode": "BLEND",
      "doubleSided": true,
      "emissiveFactor": [
        0.040015243900000004,
        0.040015243900000004,
        0.040015243900000004
      ],
      "extensions": {
        "KHR_materials_pbrSpecularGlossiness": {
          "diffuseFactor": [
            1,
            1,
            1,
            0.12976371950000001
          ],
          "diffuseTexture": {
            "index": 0,
            "texCoord": 0
          },
          "glossinessFactor": 0.14195884149999999,
          "specularFactor": [
            0,
            0,
            0
          ]
        }
      },
      "name": "material_0"
    },
    {
      "doubleSided": true,
      "emissiveFactor": [
        0.74885670731707321,
        0.74885670731707321,
        0.74885670731707321
      ],
      "emissiveTexture": {
        "index": 0,
        "texCoord": 0
      },
      "extensions": {
        "KHR_materials_pbrSpecularGlossiness": {
          "diffuseFactor": [
            1,
            1,
            1,
            1
          ],
          "diffuseTexture": {
            "index": 0,
            "texCoord": 0
          },
          "glossinessFactor": 0.77000762195121952,
          "specularFactor": [
            0,
            0,
            0
          ]
        }
      },
      "name": "material_1"
    },
    {
      "doubleSided": true,
      "emissiveFactor": [
        0,
        0,
        0
      ],
      "emissiveTexture": {
        "index": 1,
        "texCoord": 0
      },
      "extensions": {
        "KHR_materials_pbrSpecularGlossiness": {
          "diffuseFactor": [
            1,
            1,
            1,
            1
          ],
          "diffuseTexture": {
            "index": 1,
            "texCoord": 0
          },
          "glossinessFactor": 0,
          "specularFactor": [
            0,
            0,
            0
          ]
        }
      },
      "name": "material_2"
    },
    {
      "alphaMode": "BLEND",
      "doubleSided": true,
      "emissiveFactor": [
        0,
        0,
        0
      ],
      "extensions": {
        "KHR_materials_pbrSpecularGlossiness": {
          "diffuseFactor": [
            0.73725499999999999,
            0.73725499999999999,
            0.73725499999999999,
            0.2273246951
          ],
          "glossinessFactor": 0,
          "specularFactor": [
            0,
            0,
            0
          ]
        }
      },
      "name": "material_3"
    },
    {
      "alphaMode": "BLEND",
      "doubleSided": true,
      "emissiveFactor": [
        0.38191087682177188,
        0.38191087682177188,
        0.38191087682177188
      ],
      "emissiveTexture": {
        "index": 3,
        "texCoord": 0
      },
      "extensions": {
        "KHR_materials_pbrSpecularGlossiness": {
          "diffuseFactor": [
            0.053176589805854262,
            0.062115217914475752,
            0.092705959960469667,
            0.056431607172172264
          ],
          "diffuseTexture": {
            "index": 2,
            "texCoord": 0
          },
          "glossinessFactor": 1,
          "specularFactor": [
            0.44556268962540052,
            0.44556268962540052,
            0.44556268962540052
          ]
        }
      },
      "name": "material_4"
    }
  ],
  "meshes": [
    {
      "primitives": [
        {
          "attributes": {
            "COLOR_0": 2,
            "NORMAL": 1,
            "POSITION": 0,
            "TEXCOORD_0": 3
          },
          "indices": 4,
          "material": 0,
          "mode": 4
        }
      ]
    },
    {
      "primitives": [
        {
          "attributes": {
            "COLOR_0": 7,
            "NORMAL": 6,
            "POSITION": 5,
            "TEXCOORD_0": 8
          },
          "indices": 9,
          "material": 1,
          "mode": 4
        }
      ]
    },
    {
      "primitives": [
        {
          "attributes": {
            "COLOR_0": 12,
            "NORMAL": 11,
            "POSITION": 10,
            "TEXCOORD_0": 13
          },
          "indices": 14,
          "material": 2,
          "mode": 4
        }
      ]
    },
    {
      "primitives": [
        {
          "attributes": {
            "COLOR_0": 17,
            "NORMAL": 16,
            "POSITION": 15,
            "TEXCOORD_0": 18
          },
          "indices": 19,
          "material": 3,
          "mode": 4
        }
      ]
    },
    {
      "primitives": [
        {
          "attributes": {
            "COLOR_0": 22,
            "NORMAL": 21,
            "POSITION": 20,
            "TEXCOORD_0": 23
          },
          "indices": 24,
          "material": 4,
          "mode": 4
        }
      ]
    }
  ],
  "nodes": [
    {
      "children": [
        1
      ],
      "name": "RootNode (gltf orientation matrix)",
      "rotation": [
        -0.70710678118654746,
        -0,
        -0,
        0.70710678118654757
      ]
    },
    {
      "children": [
        2
      ],
      "matrix": [
        0.0057015675120055676,
        0,
        0,
        0,
        0,
        0,
        -0.0057015675120055676,
        0,
        0,
        0.0057015675120055676,
        0,
        0,
        0,
        -1067.4447021484375,
        814.05755615234375,
        1
      ],
      "name": "RootNode (model correction matrix)"
    },
    {
      "children": [
        3,
        4,
        5,
        6,
        7
      ],
      "name": "covid19.obj.cleaner.materialmerger.gles"
    },
    {
      "mesh": 0,
      "name": ""
    },
    {
      "mesh": 1,
      "name": ""
    },
    {
      "mesh": 2,
      "name": ""
    },
    {
      "mesh": 3,
      "name": ""
    },
    {
      "mesh": 4,
      "name": ""
    }
  ],
  "samplers": [
    {
      "magFilter": 9729,
      "minFilter": 9987,
      "wrapS": 10497,
      "wrapT": 10497
    }
  ],
  "scene": 0,
  "scenes": [
    {
      "name": "OSG_Scene",
      "nodes": [
        0
      ]
    }
  ],
  "textures": [
    {
      "sampler": 0,
      "source": 0
    },
    {
      "sampler": 0,
      "source": 1
    },
    {
      "sampler": 0,
      "source": 2
    },
    {
      "sampler": 0,
      "source": 3
    }
  ]
}

